<svg width="200" height="160" viewBox="0 0 200 160" fill="none" xmlns="http://www.w3.org/2000/svg">
  <path d="M100 140C100 140 165 135 185 130V35C165 40 100 45 100 45C100 45 35 40 15 35V130C35 135 100 140 100 140Z" fill="#DDD6FE" fill-opacity="0.5"/>
  
  <path d="M100 145C100 145 160 140 180 135V40C160 45 100 50 100 50M100 145C100 145 40 140 20 135V40C40 45 100 50 100 50" stroke="#8B5CF6" stroke-width="8" stroke-linecap="round" stroke-linejoin="round"/>
  
  <path d="M100 50V145" stroke="#8B5CF6" stroke-width="8" stroke-linecap="round"/>
  
  <path d="M120 75H160" stroke="#8B5CF6" stroke-width="6" stroke-linecap="round"/>
  <path d="M120 95H160" stroke="#8B5CF6" stroke-width="6" stroke-linecap="round"/>
  <path d="M120 115H160" stroke="#8B5CF6" stroke-width="6" stroke-linecap="round"/>
  
  <path d="M40 75H80" stroke="#8B5CF6" stroke-width="6" stroke-linecap="round"/>
  <path d="M40 95H80" stroke="#8B5CF6" stroke-width="6" stroke-linecap="round"/>
  <path d="M40 115H80" stroke="#8B5CF6" stroke-width="6" stroke-linecap="round"/>
  
  <circle cx="100" cy="145" r="8" fill="#8B5CF6"/>
</svg>